# xmcd
#
# Track frame offsets: 
#        150
#        14144
#        28765
#        42896
#        56985
#        70019
#        82528
#        96808
#        105785
#        119494
#        131460
#        143094
#        153127
#        165028
#        178957
#        191868
#        203527
#        214222
#        225512
#        235125
#
# Disc length: 3306 seconds
#
# Revision: 1
# Processed by: cddbd v1.5.2PL0 Copyright (c) Steve Scherf et al.
# Submitted via: ExactAudioCopy v1.3
#
DISCID=020ce814
DTITLE=Various Artist - Bluegrass Hit Festival CD07
DYEAR=1900
DGENRE=Bluegrass
TTITLE0=Bill Monroe - Dog house blues
TTITLE1=Hayes Shepherd - Hard for to love
TTITLE2=Lester Flatt and Earl Scruggs  - Don't this road look rough and 
TTITLE2=rocky
TTITLE3=The Stanley Brothers  - I long to see the old folks
TTITLE4=Bill Monroe  - Blue yodel #7
TTITLE5=The Prairie Ramblers  - Shady grove
TTITLE6=Charlie Poole and The North Carolina Ramblers - If the river was
TTITLE6=whiskey
TTITLE7=Lester Flatt and Earl Scruggs  - Foggy mountain special
TTITLE8=Earl Johnson and His Clodhoppers - I get my whiskey from Rocking
TTITLE8=ham
TTITLE9=Bill Monroe  - Katy Hill
TTITLE10=The Stanley Brothers  - A voice from on high
TTITLE11=Charlie Monroe - The great speckle bird
TTITLE12=Lester Flatt and Earl Scruggs  - I'm going to make heaven my ho
TTITLE12=me
TTITLE13=Uncle Dave Macon  - When the train comes along
TTITLE14=Bill Monroe  - Tennessee blues
TTITLE15=East Texas Serenaders  -  East Texas drag
TTITLE16=The Stanley Brothers  - Memories of mother
TTITLE17=Lester Flatt and Earl Scruggs  - Farewell blues
TTITLE18=Johnny Duncan and The Bluegrass Boys  - All of the monkeys ain'
TTITLE18=t in the zoo
TTITLE19=Bill Monroe  - I wonder if you feel the way I do
EXTD=
EXTT0=
EXTT1=
EXTT2=
EXTT3=
EXTT4=
EXTT5=
EXTT6=
EXTT7=
EXTT8=
EXTT9=
EXTT10=
EXTT11=
EXTT12=
EXTT13=
EXTT14=
EXTT15=
EXTT16=
EXTT17=
EXTT18=
EXTT19=
PLAYORDER=
